<?xml version="1.0" standalone="no"?>
<!DOCTYPE svg PUBLIC "-//W3C//DTD SVG 20010904//EN"
 "http://www.w3.org/TR/2001/REC-SVG-20010904/DTD/svg10.dtd">
<svg version="1.0" xmlns="http://www.w3.org/2000/svg"
 width="16.000000pt" height="16.000000pt" viewBox="0 0 16.000000 16.000000"
 preserveAspectRatio="xMidYMid meet">
<metadata>
Created by potrace 1.11, written by Peter Selinger 2001-2013
</metadata>
<g transform="translate(0.000000,16.000000) scale(0.003053,-0.003053)"
fill="#000000" stroke="none">
<path d="M965 4985 c-284 -63 -514 -243 -636 -500 -82 -172 -80 -159 -90 -710
-5 -269 -8 -1001 -6 -1625 l2 -1135 27 -96 c56 -205 186 -397 345 -512 l45
-32 -142 -5 -143 -5 51 -47 c114 -107 284 -198 461 -246 l96 -27 1640 0 1640
0 90 23 c49 12 127 38 173 57 88 36 247 137 320 205 l44 39 -147 3 -147 3 44
32 c164 117 289 302 346 510 l27 98 3 1135 c1 624 -2 1356 -7 1625 -8 460 -10
495 -30 565 -80 272 -284 496 -546 600 -159 63 -68 60 -1812 59 -1280 0 -1600
-3 -1648 -14z m355 -2005 l0 -920 500 0 500 0 0 -250 0 -250 -800 0 -800 0 0
1170 0 1170 300 0 300 0 0 -920z m2546 905 c344 -59 561 -224 653 -500 68
-205 64 -448 -12 -658 -72 -198 -232 -357 -439 -434 -161 -61 -193 -65 -545
-70 l-323 -5 0 -329 0 -329 -300 0 -300 0 0 1170 0 1170 589 0 c480 0 605 -3
677 -15z"/>
<path d="M3200 3061 l0 -371 238 0 c250 0 309 7 392 50 57 29 109 85 139 149
23 50 26 68 26 172 0 113 -1 118 -35 185 -40 78 -88 120 -177 155 -54 22 -76
23 -320 27 l-263 4 0 -371z"/>
</g>
</svg>
